# xmcd
#
# Track frame offsets:
#	150
#	3302
#	19675
#	34366
#	52208
#	63849
#	84118
#	98471
#	100862
#	111670
#	126976
#	143831
#	159064
#	170670
#	185358
#	204376
#	219943
#	242926
#
# Disc length: 3362 seconds
# Revision: 0
# Processed by: cddbd v1.5.2PL0 Copyright (c) Steve Scherf et al.
# Submitted via: dBpowerAMP V12.0
#
DISCID=ee0d2012
DTITLE=Nashville West - The Legendary Nashville West Album [Rev-Ola CR REV 23]
DYEAR=2003
DGENRE=Country Rock
TTITLE0=Nashville West
TTITLE1=Mental Revenge
TTITLE2=I Wanna Live
TTITLE3=C.C. Rider*
TTITLE4=Sweet Susannah
TTITLE5=Green, Green Grass Of Home
TTITLE6=Love Of The Common People
TTITLE7=Tuff and Stringy
TTITLE8=I Washed My Hands In Muddy Water
TTITLE9=Greensleeves*
TTITLE10=Ode To Billy Joe
TTITLE11=Mom and Dad's Waltz*
TTITLE12=Louisiana Rains
TTITLE13=Sing Me Back Home
TTITLE14=Columbus Stockade Blues*
TTITLE15=Memphis
TTITLE16=By The Time I Get To Phoenix
TTITLE17=Nashville West
EXTD=
EXTT0=
EXTT1=
EXTT2=
EXTT3=
EXTT4=
EXTT5=
EXTT6=
EXTT7=
EXTT8=
EXTT9=
EXTT10=
EXTT11=
EXTT12=
EXTT13=
EXTT14=
EXTT15=
EXTT16=
EXTT17=
PLAYORDER=
